HIERARCHY
ROOT joint_Root
{
	OFFSET 0.0 0.0 0.0
	CHANNELS 6 Xposition Yposition Zposition Zrotation Xrotation Yrotation 
	JOINT Hips
	{
		OFFSET 4.5925 91.4895 -427.239
		CHANNELS 6 Xposition Yposition Zposition Zrotation Xrotation Yrotation 
		JOINT Spine
		{
			OFFSET 15.7357 0.0 0.0
			CHANNELS 6 Xposition Yposition Zposition Zrotation Xrotation Yrotation 
			JOINT Chest
			{
				OFFSET 8.98455 -0.406207 0.0
				CHANNELS 6 Xposition Yposition Zposition Zrotation Xrotation Yrotation 
				JOINT Neck
				{
					OFFSET 16.3773 0.0 0.0
					CHANNELS 6 Xposition Yposition Zposition Zrotation Xrotation Yrotation 
					JOINT Head
					{
						OFFSET 6.45672 0.0 0.0
						CHANNELS 6 Xposition Yposition Zposition Zrotation Xrotation Yrotation 
						End Site
						{
							OFFSET 0.0 0.0 0.0
						}
					}
				}
				JOINT Shoulder_L
				{
					OFFSET 12.9942 -0.242716 4.98039
					CHANNELS 6 Xposition Yposition Zposition Zrotation Xrotation Yrotation 
					JOINT UpperArm_L
					{
						OFFSET 5.34809 0.0 0.0
						CHANNELS 6 Xposition Yposition Zposition Zrotation Xrotation Yrotation 
						JOINT LowerArm_L
						{
							OFFSET 24.3286 1.87007e-05 0.0
							CHANNELS 6 Xposition Yposition Zposition Zrotation Xrotation Yrotation 
							JOINT Hand_L
							{
								OFFSET 22.2916 0.0 0.0
								CHANNELS 6 Xposition Yposition Zposition Zrotation Xrotation Yrotation 
								End Site
								{
									OFFSET 0.0 0.0 0.0
								}
							}
						}
					}
				}
				JOINT Shoulder_R
				{
					OFFSET 12.9945 -0.242716 -4.98039
					CHANNELS 6 Xposition Yposition Zposition Zrotation Xrotation Yrotation 
					JOINT UpperArm_R
					{
						OFFSET -5.34813 0.0 0.0
						CHANNELS 6 Xposition Yposition Zposition Zrotation Xrotation Yrotation 
						JOINT LowerArm_R
						{
							OFFSET -24.3289 0.000322201 0.0
							CHANNELS 6 Xposition Yposition Zposition Zrotation Xrotation Yrotation 
							JOINT Hand_R
							{
								OFFSET -22.2915 -0.000108084 0.0
								CHANNELS 6 Xposition Yposition Zposition Zrotation Xrotation Yrotation 
								End Site
								{
									OFFSET 0.0 0.0 0.0
								}
							}
						}
					}
				}
			}
		}
		JOINT UpperLeg_L
		{
			OFFSET -2.19248 -6.46944 0.0
			CHANNELS 6 Xposition Yposition Zposition Zrotation Xrotation Yrotation 
			JOINT LowerLeg_L
			{
				OFFSET 39.0811 0.0 -1.23785e-05
				CHANNELS 6 Xposition Yposition Zposition Zrotation Xrotation Yrotation 
				JOINT Foot_L
				{
					OFFSET 40.9854 0.0 -1.26872e-05
					CHANNELS 6 Xposition Yposition Zposition Zrotation Xrotation Yrotation 
					JOINT Toes_L
					{
						OFFSET 11.7543 0.0 0.0
						CHANNELS 6 Xposition Yposition Zposition Zrotation Xrotation Yrotation 
						End Site
						{
							OFFSET 0.0 0.0 0.0
						}
					}
				}
			}
		}
		JOINT UpperLeg_R
		{
			OFFSET -2.19251 6.46944 0.0
			CHANNELS 6 Xposition Yposition Zposition Zrotation Xrotation Yrotation 
			JOINT LowerLeg_R
			{
				OFFSET -39.0811 -0.00228153 -0.0401928
				CHANNELS 6 Xposition Yposition Zposition Zrotation Xrotation Yrotation 
				JOINT Foot_R
				{
					OFFSET -40.9854 0.0 0.0
					CHANNELS 6 Xposition Yposition Zposition Zrotation Xrotation Yrotation 
					JOINT Toes_R
					{
						OFFSET -11.7543 0.0 0.0
						CHANNELS 6 Xposition Yposition Zposition Zrotation Xrotation Yrotation 
						End Site
						{
							OFFSET 0.0 0.0 0.0
						}
					}
				}
			}
		}
	}
}
MOTION
Frames:	4
Frame Time:	0.0333333
0.000000 0.000000 0.000000 0.000000 0.000000 -0.000000 -2.946320 91.184900 2.743400 87.691700 1.188850 3.392330 15.735700 0.000005 -0.000001 87.224600 86.115200 -91.658200 8.984550 -0.406207 -0.000000 0.006985 -0.076450 -8.861620 16.377300 -0.000001 -0.000001 6.395330 -4.352610 4.712110 6.456720 -0.000001 -0.000000 -2.953440 -0.650348 -4.928780 12.994200 -0.242716 4.980390 -91.879100 4.766440 -68.454300 5.348090 -0.000007 -0.000001 -60.190900 22.453400 -10.678400 24.328600 0.000019 0.000005 7.774210 17.829600 -24.031300 22.291600 -0.000001 0.000005 11.964000 5.175480 3.326810 12.994500 -0.242716 -4.980390 94.820000 -11.007900 -66.173000 -5.348130 -0.000001 -0.000004 -41.859900 -68.182000 -84.494900 -24.328900 0.000322 -0.000009 -10.247500 -13.678100 -37.395800 -22.291500 -0.000108 -0.000004 15.754000 5.538010 -8.152560 -2.192480 -6.469440 -0.000000 -171.797000 -11.138800 -4.387030 39.081100 -0.000007 -0.000012 -0.174518 0.326896 28.096400 40.985400 -0.000006 -0.000013 -0.956752 9.760180 -70.083800 11.754300 -0.000000 0.000003 -0.000162 -0.001549 -16.636300 -2.192510 6.469440 -0.000001 179.279000 22.664800 178.771000 -39.081100 -0.002282 -0.040193 0.012557 -0.019023 25.924400 -40.985400 0.000008 0.000006 8.132810 12.976600 -71.757700 -11.754300 -0.000006 -0.000006 -0.003370 -0.044723 -18.392100
0.000000 0.000000 0.000000 0.000000 0.000000 -0.000000 -2.884310 91.203000 2.726390 87.698200 1.060370 3.346540 15.735700 0.000005 -0.000001 86.484500 86.078900 -90.841000 8.984550 -0.406207 -0.000000 0.069240 -0.188642 -8.707050 16.377300 -0.000001 -0.000001 6.238020 -4.308430 4.774200 6.456720 -0.000001 -0.000000 -2.978950 -0.485599 -4.993380 12.994200 -0.242716 4.980390 -91.869900 4.747940 -68.474300 5.348090 -0.000007 -0.000001 -60.133100 22.710100 -11.231100 24.328600 0.000019 0.000005 7.643650 17.733500 -23.778400 22.291600 -0.000001 0.000005 12.273600 5.174630 3.347490 12.994500 -0.242716 -4.980390 94.758600 -10.847700 -66.139100 -5.348130 -0.000001 -0.000004 -38.785000 -67.402300 -80.499300 -24.328900 0.000322 -0.000009 -10.726500 -13.935600 -38.184600 -22.291500 -0.000108 -0.000004 15.755400 5.530030 -7.796610 -2.192480 -6.469440 -0.000000 -171.855000 -11.268100 -4.377820 39.081100 -0.000007 -0.000012 -0.171599 0.322506 28.016700 40.985400 -0.000006 -0.000013 -0.927874 9.706440 -70.048300 11.754300 -0.000000 0.000003 -0.000165 -0.001577 -16.637400 -2.192510 6.469440 -0.000001 179.235000 22.687400 178.719000 -39.081100 -0.002282 -0.040193 0.012799 -0.019547 25.893700 -40.985400 0.000008 0.000006 8.171060 13.136100 -71.701300 -11.754300 -0.000006 -0.000006 -0.003323 -0.044203 -18.370900
0.000000 0.000000 0.000000 0.000000 0.000000 -0.000000 -2.796240 91.222300 2.681240 87.704900 0.867481 3.232880 15.735700 0.000005 -0.000001 85.593300 86.053300 -89.857000 8.984550 -0.406207 -0.000000 0.106383 -0.321811 -8.521460 16.377300 -0.000001 -0.000001 6.002750 -4.202110 4.639240 6.456720 -0.000001 -0.000000 -3.084370 -0.357468 -5.020480 12.994200 -0.242716 4.980390 -91.844500 4.653590 -68.350200 5.348090 -0.000007 -0.000001 -60.243400 22.994100 -11.880600 24.328600 0.000019 0.000005 7.575650 18.157100 -23.112000 22.291600 -0.000001 0.000005 12.291500 5.172180 3.407300 12.994500 -0.242716 -4.980390 94.614600 -10.493200 -66.097200 -5.348130 -0.000001 -0.000004 -34.199000 -65.849800 -74.533300 -24.328900 0.000322 -0.000009 -11.320700 -13.958500 -39.687200 -22.291500 -0.000108 -0.000004 15.922100 5.521230 -7.414520 -2.192480 -6.469440 -0.000000 -171.950000 -11.454600 -4.458920 39.081100 -0.000007 -0.000012 -0.168456 0.317382 27.958200 40.985400 -0.000006 -0.000013 -0.870662 9.656650 -70.011200 11.754300 -0.000000 0.000003 -0.000170 -0.001611 -16.638600 -2.192510 6.469440 -0.000001 179.212000 22.662600 178.545000 -39.081100 -0.002282 -0.040193 0.012429 -0.018789 25.887700 -40.985400 0.000008 0.000006 8.114260 13.298400 -71.595600 -11.754300 -0.000006 -0.000006 -0.003288 -0.043822 -18.355400
0.000000 0.000000 0.000000 0.000000 0.000000 -0.000000 -2.683850 91.239600 2.625450 87.694500 0.620740 3.156650 15.735700 0.000005 -0.000001 84.488200 85.977200 -88.604400 8.984550 -0.406207 -0.000000 0.237703 -0.502580 -8.225670 16.377300 -0.000001 -0.000001 5.629770 -3.934780 4.255950 6.456720 -0.000001 -0.000000 -3.483180 -0.242972 -5.261470 12.994200 -0.242716 4.980390 -91.853400 4.581730 -67.947600 5.348090 -0.000007 -0.000001 -60.418100 23.608200 -12.652900 24.328600 0.000019 0.000005 7.305040 18.363100 -22.141900 22.291600 -0.000001 0.000005 12.453800 5.161240 3.673430 12.994500 -0.242716 -4.980390 94.296200 -9.780760 -66.143900 -5.348130 -0.000001 -0.000004 -28.082900 -63.514300 -67.024000 -24.328900 0.000322 -0.000009 -11.971000 -13.718800 -41.795300 -22.291500 -0.000108 -0.000004 16.407300 5.519610 -7.345270 -2.192480 -6.469440 -0.000000 -172.030000 -11.586300 -4.504770 39.081100 -0.000007 -0.000012 -0.170176 0.321176 27.917200 40.985400 -0.000006 -0.000013 -0.817057 9.557710 -69.991700 11.754300 -0.000000 0.000003 -0.000168 -0.001602 -16.638300 -2.192510 6.469440 -0.000001 179.171000 22.609500 178.413000 -39.081100 -0.002282 -0.040193 0.012238 -0.018405 25.876100 -40.985400 0.000008 0.000006 8.081410 13.506300 -71.507900 -11.754300 -0.000006 -0.000006 -0.003272 -0.043644 -18.348100
